<mxfile host="65bd71144e">
    <diagram id="TWPvgU6UWbrKj5qan-sC" name="Page-1">
        <mxGraphModel dx="1895" dy="1620" grid="1" gridSize="10" guides="1" tooltips="1" connect="1" arrows="1" fold="1" page="1" pageScale="1" pageWidth="827" pageHeight="1169" math="0" shadow="0">
            <root>
                <mxCell id="0"/>
                <mxCell id="1" parent="0"/>
                <mxCell id="b2YMCBuufm5c_ai1b8BD-9" value="&lt;div&gt;&lt;font style=&quot;font-size: 28px&quot;&gt;00&amp;nbsp; &amp;nbsp;- Espera do identificador primário &quot;L&quot;&lt;br&gt;&lt;/font&gt;&lt;/div&gt;&lt;font style=&quot;font-size: 28px&quot;&gt;&lt;div&gt;&lt;span&gt;01&amp;nbsp; &amp;nbsp;- Chegou &quot;L&quot;, espera identificador secundário de comando&lt;/span&gt;&lt;/div&gt;&lt;div&gt;&lt;span&gt;&lt;br&gt;&lt;/span&gt;&lt;/div&gt;&lt;div&gt;&lt;span&gt;02&amp;nbsp; &amp;nbsp;- Identificou comando &quot;L0&quot;, espera &quot;espaço&quot;&lt;/span&gt;&lt;/div&gt;&lt;div&gt;&lt;span&gt;03&amp;nbsp; &amp;nbsp;- Identificou &quot;L0 &quot;, espera dígito entre 0 a 9&lt;/span&gt;&lt;br&gt;&lt;/div&gt;&lt;div&gt;04&amp;nbsp; &amp;nbsp;- Identificou &quot;L0 X&quot;, espera &quot;\n&quot; para confirmar o comando&lt;span&gt;&lt;br&gt;&lt;/span&gt;&lt;/div&gt;&lt;div&gt;04+ - Identificou&amp;nbsp;&quot;L0 X\n&quot;, executa o comando e volta ao estado 0&lt;/div&gt;&lt;div&gt;&lt;br&gt;&lt;/div&gt;&lt;div&gt;&lt;div&gt;05&amp;nbsp;&lt;span&gt;&amp;nbsp;&lt;/span&gt;&lt;span&gt;&amp;nbsp;&lt;/span&gt;&lt;span&gt;- Identificou comando &quot;L1&quot;, espera &quot;espaço&quot;&lt;/span&gt;&lt;/div&gt;&lt;div&gt;06&amp;nbsp;&lt;span&gt;&amp;nbsp;&lt;/span&gt;&lt;span&gt;&amp;nbsp;&lt;/span&gt;&lt;span&gt;- Identificou &quot;L1 &quot;, espera dígito entre 0 a 9&lt;/span&gt;&lt;/div&gt;&lt;div&gt;07&amp;nbsp;&lt;span&gt;&amp;nbsp;&lt;/span&gt;&lt;span&gt;&amp;nbsp;&lt;/span&gt;&lt;span&gt;- Identificou &quot;L1 X&quot;, espera &quot;\n&quot; para confirmar o comando&lt;/span&gt;&lt;/div&gt;&lt;div&gt;07+- Identificou&amp;nbsp;&quot;L1 X\n&quot;, executa o comando e volta ao estado 0&lt;/div&gt;&lt;div&gt;&lt;br&gt;&lt;/div&gt;&lt;div&gt;08&amp;nbsp; &amp;nbsp;- Identificou &quot;L2&quot;,&amp;nbsp;&lt;span&gt;espera &quot;\n&quot; para confirmar o comando&lt;/span&gt;&lt;/div&gt;&lt;/div&gt;&lt;div&gt;08+ - Identificou &quot;L2\n&quot;, executa o comando e volta ao estado 0&lt;/div&gt;&lt;div&gt;&lt;br&gt;&lt;/div&gt;&lt;div&gt;&lt;div&gt;09&amp;nbsp; &amp;nbsp;- Identificou &quot;L3&quot;,&amp;nbsp;espera &quot;\n&quot; para confirmar o comando&lt;/div&gt;&lt;div&gt;09+ - Identificou &quot;L3\n&quot;, executa o comando e volta ao estado 0&lt;br&gt;&lt;br&gt;10&amp;nbsp; &amp;nbsp;-&amp;nbsp;&lt;span&gt;Identificou &quot;L4&quot;,&amp;nbsp;espera &quot;\n&quot; para confirmar o comando&lt;/span&gt;&lt;/div&gt;&lt;/div&gt;&lt;div&gt;&lt;span&gt;10+ - Identificou &quot;L4\n&quot;, executa o comando e volta ao estado 0&lt;/span&gt;&lt;/div&gt;&lt;div&gt;&lt;span&gt;&lt;br&gt;&lt;/span&gt;&lt;/div&gt;&lt;div&gt;&lt;span&gt;11&amp;nbsp; &amp;nbsp;- Identificou &quot;L5&quot;, espera &quot;\n&quot; para confirmar o comando&lt;/span&gt;&lt;/div&gt;&lt;div&gt;11+ - Identificou &quot;L5\n&quot;, executa o comando e volta ao estado 0&lt;/div&gt;&lt;/font&gt;" style="text;html=1;align=left;verticalAlign=middle;resizable=0;points=[];autosize=1;strokeColor=#666666;fillColor=#f5f5f5;fontSize=28;imageAspect=1;recursiveResize=1;expand=1;resizeHeight=1;resizeWidth=1;comic=0;fontColor=#333333;" parent="1" vertex="1">
                    <mxGeometry x="740" y="222" width="830" height="810" as="geometry"/>
                </mxCell>
                <mxCell id="b2YMCBuufm5c_ai1b8BD-25" style="edgeStyle=orthogonalEdgeStyle;rounded=0;orthogonalLoop=1;jettySize=auto;html=1;fontSize=28;" parent="1" source="b2YMCBuufm5c_ai1b8BD-26" target="b2YMCBuufm5c_ai1b8BD-28" edge="1">
                    <mxGeometry relative="1" as="geometry"/>
                </mxCell>
                <mxCell id="b2YMCBuufm5c_ai1b8BD-26" value="&lt;font style=&quot;font-size: 28px&quot;&gt;0&lt;/font&gt;" style="ellipse;whiteSpace=wrap;html=1;aspect=fixed;" parent="1" vertex="1">
                    <mxGeometry x="6" y="243" width="80" height="80" as="geometry"/>
                </mxCell>
                <mxCell id="b2YMCBuufm5c_ai1b8BD-47" style="edgeStyle=orthogonalEdgeStyle;rounded=0;orthogonalLoop=1;jettySize=auto;html=1;entryX=0;entryY=0.5;entryDx=0;entryDy=0;fontSize=24;exitX=0;exitY=0;exitDx=0;exitDy=0;" parent="1" source="b2YMCBuufm5c_ai1b8BD-28" target="b2YMCBuufm5c_ai1b8BD-38" edge="1">
                    <mxGeometry relative="1" as="geometry">
                        <Array as="points">
                            <mxPoint x="218" y="53"/>
                            <mxPoint x="218" y="43"/>
                        </Array>
                    </mxGeometry>
                </mxCell>
                <mxCell id="b2YMCBuufm5c_ai1b8BD-48" style="edgeStyle=orthogonalEdgeStyle;rounded=0;orthogonalLoop=1;jettySize=auto;html=1;entryX=0;entryY=0.5;entryDx=0;entryDy=0;fontSize=24;exitX=1;exitY=0;exitDx=0;exitDy=0;" parent="1" source="b2YMCBuufm5c_ai1b8BD-28" target="b2YMCBuufm5c_ai1b8BD-42" edge="1">
                    <mxGeometry relative="1" as="geometry">
                        <Array as="points">
                            <mxPoint x="274" y="163"/>
                        </Array>
                    </mxGeometry>
                </mxCell>
                <mxCell id="b2YMCBuufm5c_ai1b8BD-50" style="edgeStyle=orthogonalEdgeStyle;rounded=0;orthogonalLoop=1;jettySize=auto;html=1;entryX=0;entryY=0.5;entryDx=0;entryDy=0;fontSize=24;" parent="1" source="b2YMCBuufm5c_ai1b8BD-28" target="b2YMCBuufm5c_ai1b8BD-43" edge="1">
                    <mxGeometry relative="1" as="geometry"/>
                </mxCell>
                <mxCell id="b2YMCBuufm5c_ai1b8BD-53" style="edgeStyle=orthogonalEdgeStyle;rounded=0;orthogonalLoop=1;jettySize=auto;html=1;entryX=0;entryY=0.5;entryDx=0;entryDy=0;fontSize=24;exitX=1;exitY=1;exitDx=0;exitDy=0;" parent="1" source="b2YMCBuufm5c_ai1b8BD-28" target="b2YMCBuufm5c_ai1b8BD-44" edge="1">
                    <mxGeometry relative="1" as="geometry">
                        <mxPoint x="226" y="363" as="sourcePoint"/>
                        <Array as="points">
                            <mxPoint x="274" y="403"/>
                        </Array>
                    </mxGeometry>
                </mxCell>
                <mxCell id="b2YMCBuufm5c_ai1b8BD-55" style="edgeStyle=orthogonalEdgeStyle;rounded=0;orthogonalLoop=1;jettySize=auto;html=1;entryX=0;entryY=0.5;entryDx=0;entryDy=0;fontSize=24;exitX=0.5;exitY=1;exitDx=0;exitDy=0;" parent="1" source="b2YMCBuufm5c_ai1b8BD-28" target="b2YMCBuufm5c_ai1b8BD-45" edge="1">
                    <mxGeometry relative="1" as="geometry">
                        <Array as="points">
                            <mxPoint x="246" y="523"/>
                        </Array>
                    </mxGeometry>
                </mxCell>
                <mxCell id="b2YMCBuufm5c_ai1b8BD-57" style="edgeStyle=orthogonalEdgeStyle;rounded=0;orthogonalLoop=1;jettySize=auto;html=1;exitX=0;exitY=1;exitDx=0;exitDy=0;fontSize=24;entryX=0;entryY=0.5;entryDx=0;entryDy=0;" parent="1" source="b2YMCBuufm5c_ai1b8BD-28" target="b2YMCBuufm5c_ai1b8BD-58" edge="1">
                    <mxGeometry relative="1" as="geometry">
                        <mxPoint x="217.33333333333348" y="603" as="targetPoint"/>
                        <Array as="points">
                            <mxPoint x="218" y="643"/>
                        </Array>
                    </mxGeometry>
                </mxCell>
                <mxCell id="b2YMCBuufm5c_ai1b8BD-28" value="&lt;span style=&quot;font-size: 28px&quot;&gt;1&lt;/span&gt;" style="ellipse;whiteSpace=wrap;html=1;aspect=fixed;" parent="1" vertex="1">
                    <mxGeometry x="206" y="243" width="80" height="80" as="geometry"/>
                </mxCell>
                <mxCell id="b2YMCBuufm5c_ai1b8BD-29" style="edgeStyle=orthogonalEdgeStyle;rounded=0;orthogonalLoop=1;jettySize=auto;html=1;entryX=0;entryY=0.5;entryDx=0;entryDy=0;fontSize=24;exitX=1;exitY=0.5;exitDx=0;exitDy=0;" parent="1" source="b2YMCBuufm5c_ai1b8BD-42" target="b2YMCBuufm5c_ai1b8BD-34" edge="1">
                    <mxGeometry relative="1" as="geometry">
                        <mxPoint x="726" y="418" as="sourcePoint"/>
                    </mxGeometry>
                </mxCell>
                <mxCell id="b2YMCBuufm5c_ai1b8BD-30" style="edgeStyle=orthogonalEdgeStyle;rounded=0;orthogonalLoop=1;jettySize=auto;html=1;fontSize=24;exitX=1;exitY=0.5;exitDx=0;exitDy=0;" parent="1" source="b2YMCBuufm5c_ai1b8BD-43" target="b2YMCBuufm5c_ai1b8BD-35" edge="1">
                    <mxGeometry relative="1" as="geometry">
                        <mxPoint x="496" y="293" as="sourcePoint"/>
                    </mxGeometry>
                </mxCell>
                <mxCell id="b2YMCBuufm5c_ai1b8BD-80" style="edgeStyle=orthogonalEdgeStyle;rounded=0;orthogonalLoop=1;jettySize=auto;html=1;entryX=0;entryY=0.5;entryDx=0;entryDy=0;fontSize=24;" parent="1" source="b2YMCBuufm5c_ai1b8BD-31" target="b2YMCBuufm5c_ai1b8BD-79" edge="1">
                    <mxGeometry relative="1" as="geometry"/>
                </mxCell>
                <mxCell id="b2YMCBuufm5c_ai1b8BD-31" value="&lt;font style=&quot;font-size: 28px&quot;&gt;4&lt;/font&gt;" style="ellipse;whiteSpace=wrap;html=1;aspect=fixed;strokeWidth=1;" parent="1" vertex="1">
                    <mxGeometry x="836" y="3" width="80" height="80" as="geometry"/>
                </mxCell>
                <mxCell id="b2YMCBuufm5c_ai1b8BD-32" value="&lt;font style=&quot;font-size: 24px&quot;&gt;L&lt;/font&gt;" style="text;html=1;align=center;verticalAlign=middle;resizable=0;points=[];autosize=1;strokeColor=none;fillColor=none;fontSize=15;" parent="1" vertex="1">
                    <mxGeometry x="86" y="238" width="30" height="30" as="geometry"/>
                </mxCell>
                <mxCell id="b2YMCBuufm5c_ai1b8BD-33" value="0" style="text;html=1;align=center;verticalAlign=middle;resizable=0;points=[];autosize=1;strokeColor=none;fillColor=none;fontSize=24;" parent="1" vertex="1">
                    <mxGeometry x="296" y="13" width="30" height="30" as="geometry"/>
                </mxCell>
                <mxCell id="b2YMCBuufm5c_ai1b8BD-34" value="&lt;font style=&quot;font-size: 28px&quot;&gt;6&lt;/font&gt;" style="ellipse;whiteSpace=wrap;html=1;aspect=fixed;" parent="1" vertex="1">
                    <mxGeometry x="616" y="123" width="80" height="80" as="geometry"/>
                </mxCell>
                <mxCell id="b2YMCBuufm5c_ai1b8BD-35" value="&lt;font style=&quot;font-size: 28px&quot;&gt;0&lt;/font&gt;" style="ellipse;whiteSpace=wrap;html=1;aspect=fixed;strokeWidth=3;dashed=1;" parent="1" vertex="1">
                    <mxGeometry x="616" y="243" width="80" height="80" as="geometry"/>
                </mxCell>
                <mxCell id="b2YMCBuufm5c_ai1b8BD-36" value="&quot;espaço&quot;" style="text;html=1;align=center;verticalAlign=middle;resizable=0;points=[];autosize=1;strokeColor=none;fillColor=none;fontSize=24;" parent="1" vertex="1">
                    <mxGeometry x="486" y="13" width="110" height="30" as="geometry"/>
                </mxCell>
                <mxCell id="b2YMCBuufm5c_ai1b8BD-37" value="&quot;\n&quot;" style="text;html=1;align=center;verticalAlign=middle;resizable=0;points=[];autosize=1;strokeColor=none;fillColor=none;fontSize=24;" parent="1" vertex="1">
                    <mxGeometry x="486" y="253" width="50" height="30" as="geometry"/>
                </mxCell>
                <mxCell id="b2YMCBuufm5c_ai1b8BD-38" value="&lt;font style=&quot;font-size: 28px&quot;&gt;2&lt;/font&gt;" style="ellipse;whiteSpace=wrap;html=1;aspect=fixed;" parent="1" vertex="1">
                    <mxGeometry x="406" y="3" width="80" height="80" as="geometry"/>
                </mxCell>
                <mxCell id="b2YMCBuufm5c_ai1b8BD-42" value="&lt;font style=&quot;font-size: 28px&quot;&gt;5&lt;/font&gt;" style="ellipse;whiteSpace=wrap;html=1;aspect=fixed;" parent="1" vertex="1">
                    <mxGeometry x="406" y="123" width="80" height="80" as="geometry"/>
                </mxCell>
                <mxCell id="b2YMCBuufm5c_ai1b8BD-43" value="&lt;font style=&quot;font-size: 28px&quot;&gt;8&lt;/font&gt;" style="ellipse;whiteSpace=wrap;html=1;aspect=fixed;" parent="1" vertex="1">
                    <mxGeometry x="406" y="243" width="80" height="80" as="geometry"/>
                </mxCell>
                <mxCell id="b2YMCBuufm5c_ai1b8BD-44" value="&lt;font style=&quot;font-size: 28px&quot;&gt;9&lt;/font&gt;" style="ellipse;whiteSpace=wrap;html=1;aspect=fixed;" parent="1" vertex="1">
                    <mxGeometry x="406" y="363" width="80" height="80" as="geometry"/>
                </mxCell>
                <mxCell id="b2YMCBuufm5c_ai1b8BD-45" value="&lt;font style=&quot;font-size: 28px&quot;&gt;10&lt;/font&gt;" style="ellipse;whiteSpace=wrap;html=1;aspect=fixed;" parent="1" vertex="1">
                    <mxGeometry x="406" y="483" width="80" height="80" as="geometry"/>
                </mxCell>
                <mxCell id="b2YMCBuufm5c_ai1b8BD-49" value="1" style="text;html=1;align=center;verticalAlign=middle;resizable=0;points=[];autosize=1;strokeColor=none;fillColor=none;fontSize=24;" parent="1" vertex="1">
                    <mxGeometry x="296" y="133" width="30" height="30" as="geometry"/>
                </mxCell>
                <mxCell id="b2YMCBuufm5c_ai1b8BD-51" value="2" style="text;html=1;align=center;verticalAlign=middle;resizable=0;points=[];autosize=1;strokeColor=none;fillColor=none;fontSize=24;" parent="1" vertex="1">
                    <mxGeometry x="296" y="253" width="30" height="30" as="geometry"/>
                </mxCell>
                <mxCell id="b2YMCBuufm5c_ai1b8BD-54" value="3" style="text;html=1;align=center;verticalAlign=middle;resizable=0;points=[];autosize=1;strokeColor=none;fillColor=none;fontSize=24;" parent="1" vertex="1">
                    <mxGeometry x="296" y="403" width="30" height="30" as="geometry"/>
                </mxCell>
                <mxCell id="b2YMCBuufm5c_ai1b8BD-56" value="4" style="text;html=1;align=center;verticalAlign=middle;resizable=0;points=[];autosize=1;strokeColor=none;fillColor=none;fontSize=24;" parent="1" vertex="1">
                    <mxGeometry x="296" y="523" width="30" height="30" as="geometry"/>
                </mxCell>
                <mxCell id="b2YMCBuufm5c_ai1b8BD-58" value="&lt;font style=&quot;font-size: 28px&quot;&gt;11&lt;/font&gt;" style="ellipse;whiteSpace=wrap;html=1;aspect=fixed;" parent="1" vertex="1">
                    <mxGeometry x="406" y="603" width="80" height="80" as="geometry"/>
                </mxCell>
                <mxCell id="b2YMCBuufm5c_ai1b8BD-59" value="5" style="text;html=1;align=center;verticalAlign=middle;resizable=0;points=[];autosize=1;strokeColor=none;fillColor=none;fontSize=24;" parent="1" vertex="1">
                    <mxGeometry x="296" y="613" width="30" height="30" as="geometry"/>
                </mxCell>
                <mxCell id="b2YMCBuufm5c_ai1b8BD-60" value="&lt;font style=&quot;font-size: 28px&quot;&gt;0&lt;/font&gt;" style="ellipse;whiteSpace=wrap;html=1;aspect=fixed;strokeWidth=3;dashed=1;" parent="1" vertex="1">
                    <mxGeometry x="616" y="363" width="80" height="80" as="geometry"/>
                </mxCell>
                <mxCell id="b2YMCBuufm5c_ai1b8BD-61" value="&lt;font style=&quot;font-size: 28px&quot;&gt;0&lt;/font&gt;" style="ellipse;whiteSpace=wrap;html=1;aspect=fixed;strokeWidth=3;dashed=1;" parent="1" vertex="1">
                    <mxGeometry x="616" y="483" width="80" height="80" as="geometry"/>
                </mxCell>
                <mxCell id="b2YMCBuufm5c_ai1b8BD-62" value="&lt;font style=&quot;font-size: 28px&quot;&gt;0&lt;/font&gt;" style="ellipse;whiteSpace=wrap;html=1;aspect=fixed;strokeWidth=3;dashed=1;" parent="1" vertex="1">
                    <mxGeometry x="616" y="603" width="80" height="80" as="geometry"/>
                </mxCell>
                <mxCell id="b2YMCBuufm5c_ai1b8BD-63" style="edgeStyle=orthogonalEdgeStyle;rounded=0;orthogonalLoop=1;jettySize=auto;html=1;fontSize=24;" parent="1" source="b2YMCBuufm5c_ai1b8BD-44" target="b2YMCBuufm5c_ai1b8BD-60" edge="1">
                    <mxGeometry relative="1" as="geometry">
                        <mxPoint x="486" y="402" as="sourcePoint"/>
                        <mxPoint x="616" y="402" as="targetPoint"/>
                    </mxGeometry>
                </mxCell>
                <mxCell id="b2YMCBuufm5c_ai1b8BD-64" value="&quot;\n&quot;" style="text;html=1;align=center;verticalAlign=middle;resizable=0;points=[];autosize=1;strokeColor=none;fillColor=none;fontSize=24;" parent="1" vertex="1">
                    <mxGeometry x="486" y="372" width="50" height="30" as="geometry"/>
                </mxCell>
                <mxCell id="b2YMCBuufm5c_ai1b8BD-65" style="edgeStyle=orthogonalEdgeStyle;rounded=0;orthogonalLoop=1;jettySize=auto;html=1;fontSize=24;" parent="1" source="b2YMCBuufm5c_ai1b8BD-45" target="b2YMCBuufm5c_ai1b8BD-61" edge="1">
                    <mxGeometry relative="1" as="geometry">
                        <mxPoint x="486" y="522" as="sourcePoint"/>
                        <mxPoint x="616" y="522" as="targetPoint"/>
                    </mxGeometry>
                </mxCell>
                <mxCell id="b2YMCBuufm5c_ai1b8BD-66" value="&quot;\n&quot;" style="text;html=1;align=center;verticalAlign=middle;resizable=0;points=[];autosize=1;strokeColor=none;fillColor=none;fontSize=24;" parent="1" vertex="1">
                    <mxGeometry x="486" y="492" width="50" height="30" as="geometry"/>
                </mxCell>
                <mxCell id="b2YMCBuufm5c_ai1b8BD-67" style="edgeStyle=orthogonalEdgeStyle;rounded=0;orthogonalLoop=1;jettySize=auto;html=1;fontSize=24;" parent="1" source="b2YMCBuufm5c_ai1b8BD-58" target="b2YMCBuufm5c_ai1b8BD-62" edge="1">
                    <mxGeometry relative="1" as="geometry">
                        <mxPoint x="486" y="642" as="sourcePoint"/>
                        <mxPoint x="616" y="642" as="targetPoint"/>
                    </mxGeometry>
                </mxCell>
                <mxCell id="b2YMCBuufm5c_ai1b8BD-68" value="&quot;\n&quot;" style="text;html=1;align=center;verticalAlign=middle;resizable=0;points=[];autosize=1;strokeColor=none;fillColor=none;fontSize=24;" parent="1" vertex="1">
                    <mxGeometry x="486" y="612" width="50" height="30" as="geometry"/>
                </mxCell>
                <mxCell id="b2YMCBuufm5c_ai1b8BD-69" style="edgeStyle=orthogonalEdgeStyle;rounded=0;orthogonalLoop=1;jettySize=auto;html=1;entryX=0;entryY=0.5;entryDx=0;entryDy=0;fontSize=24;exitX=1;exitY=0.5;exitDx=0;exitDy=0;" parent="1" source="b2YMCBuufm5c_ai1b8BD-38" target="b2YMCBuufm5c_ai1b8BD-70" edge="1">
                    <mxGeometry relative="1" as="geometry">
                        <mxPoint x="506" y="42.999999999999545" as="sourcePoint"/>
                    </mxGeometry>
                </mxCell>
                <mxCell id="b2YMCBuufm5c_ai1b8BD-73" style="edgeStyle=orthogonalEdgeStyle;rounded=0;orthogonalLoop=1;jettySize=auto;html=1;fontSize=24;" parent="1" source="b2YMCBuufm5c_ai1b8BD-70" target="b2YMCBuufm5c_ai1b8BD-31" edge="1">
                    <mxGeometry relative="1" as="geometry"/>
                </mxCell>
                <mxCell id="b2YMCBuufm5c_ai1b8BD-70" value="&lt;font style=&quot;font-size: 28px&quot;&gt;3&lt;/font&gt;" style="ellipse;whiteSpace=wrap;html=1;aspect=fixed;" parent="1" vertex="1">
                    <mxGeometry x="616" y="3" width="80" height="80" as="geometry"/>
                </mxCell>
                <mxCell id="b2YMCBuufm5c_ai1b8BD-71" value="&quot;espaço&quot;" style="text;html=1;align=center;verticalAlign=middle;resizable=0;points=[];autosize=1;strokeColor=none;fillColor=none;fontSize=24;" parent="1" vertex="1">
                    <mxGeometry x="486" y="133" width="110" height="30" as="geometry"/>
                </mxCell>
                <mxCell id="b2YMCBuufm5c_ai1b8BD-74" value="0 ~ 9" style="text;html=1;align=center;verticalAlign=middle;resizable=0;points=[];autosize=1;strokeColor=none;fillColor=none;fontSize=24;" parent="1" vertex="1">
                    <mxGeometry x="691" y="13" width="70" height="30" as="geometry"/>
                </mxCell>
                <mxCell id="b2YMCBuufm5c_ai1b8BD-75" value="&lt;font style=&quot;font-size: 28px&quot;&gt;7&lt;/font&gt;" style="ellipse;whiteSpace=wrap;html=1;aspect=fixed;strokeWidth=1;" parent="1" vertex="1">
                    <mxGeometry x="836" y="123" width="80" height="80" as="geometry"/>
                </mxCell>
                <mxCell id="b2YMCBuufm5c_ai1b8BD-76" style="edgeStyle=orthogonalEdgeStyle;rounded=0;orthogonalLoop=1;jettySize=auto;html=1;fontSize=24;exitX=1;exitY=0.5;exitDx=0;exitDy=0;" parent="1" source="b2YMCBuufm5c_ai1b8BD-34" target="b2YMCBuufm5c_ai1b8BD-75" edge="1">
                    <mxGeometry relative="1" as="geometry">
                        <mxPoint x="731" y="163" as="sourcePoint"/>
                    </mxGeometry>
                </mxCell>
                <mxCell id="b2YMCBuufm5c_ai1b8BD-77" value="0 ~ 9" style="text;html=1;align=center;verticalAlign=middle;resizable=0;points=[];autosize=1;strokeColor=none;fillColor=none;fontSize=24;" parent="1" vertex="1">
                    <mxGeometry x="696" y="133" width="70" height="30" as="geometry"/>
                </mxCell>
                <mxCell id="b2YMCBuufm5c_ai1b8BD-79" value="&lt;font style=&quot;font-size: 28px&quot;&gt;0&lt;/font&gt;" style="ellipse;whiteSpace=wrap;html=1;aspect=fixed;strokeWidth=3;dashed=1;" parent="1" vertex="1">
                    <mxGeometry x="1046" y="3" width="80" height="80" as="geometry"/>
                </mxCell>
                <mxCell id="b2YMCBuufm5c_ai1b8BD-81" value="&quot;\n&quot;" style="text;html=1;align=center;verticalAlign=middle;resizable=0;points=[];autosize=1;strokeColor=none;fillColor=none;fontSize=24;" parent="1" vertex="1">
                    <mxGeometry x="926" y="13" width="50" height="30" as="geometry"/>
                </mxCell>
                <mxCell id="b2YMCBuufm5c_ai1b8BD-82" value="&lt;font style=&quot;font-size: 28px&quot;&gt;0&lt;/font&gt;" style="ellipse;whiteSpace=wrap;html=1;aspect=fixed;strokeWidth=3;dashed=1;" parent="1" vertex="1">
                    <mxGeometry x="1046" y="123" width="80" height="80" as="geometry"/>
                </mxCell>
                <mxCell id="b2YMCBuufm5c_ai1b8BD-83" value="&quot;\n&quot;" style="text;html=1;align=center;verticalAlign=middle;resizable=0;points=[];autosize=1;strokeColor=none;fillColor=none;fontSize=24;" parent="1" vertex="1">
                    <mxGeometry x="926" y="133" width="50" height="30" as="geometry"/>
                </mxCell>
                <mxCell id="b2YMCBuufm5c_ai1b8BD-84" style="edgeStyle=orthogonalEdgeStyle;rounded=0;orthogonalLoop=1;jettySize=auto;html=1;entryX=0;entryY=0.5;entryDx=0;entryDy=0;fontSize=24;exitX=1;exitY=0.5;exitDx=0;exitDy=0;" parent="1" source="b2YMCBuufm5c_ai1b8BD-75" target="b2YMCBuufm5c_ai1b8BD-82" edge="1">
                    <mxGeometry relative="1" as="geometry">
                        <mxPoint x="916" y="43" as="sourcePoint"/>
                        <mxPoint x="1045.9999999999873" y="43" as="targetPoint"/>
                        <Array as="points">
                            <mxPoint x="1046" y="163"/>
                        </Array>
                    </mxGeometry>
                </mxCell>
                <mxCell id="2" value="Estados &quot;+&quot; representam a aceitação desse estado, &lt;br&gt;a execução da ação esperada e a transição para o estado inicial" style="text;html=1;align=left;verticalAlign=middle;resizable=0;points=[];autosize=1;fontSize=28;fillColor=#f5f5f5;strokeColor=#666666;fontColor=#333333;" vertex="1" parent="1">
                    <mxGeometry x="745" y="1060" width="820" height="70" as="geometry"/>
                </mxCell>
            </root>
        </mxGraphModel>
    </diagram>
</mxfile>